<svg width="150" height="30" viewBox="0 0 150 30" fill="none" xmlns="http://www.w3.org/2000/svg">
<path d="M27.193 3.67114H12.8198C12.2332 3.67114 12.1075 3.71339 11.7724 4.05139L0.377084 14.6972C0.0418982 15.0352 0 15.1619 0 15.7534V22.0063C0 25.5542 1.75973 27.3287 5.27918 27.3287H19.6524C20.2379 27.3287 20.3636 27.2864 20.6988 26.9484L32.0951 16.3026C32.4292 15.9646 32.4711 15.8379 32.4711 15.2464V8.99461C32.4711 5.44562 30.7125 3.67114 27.193 3.67114Z" fill="#653DF5"/>
<path d="M46.2312 6.264L46.5832 6.328V23H41.7992V1.88H48.3272L56.8872 18.52L56.5352 18.584V1.88H61.3192V23H54.7592L46.2312 6.264ZM65.0522 1.88H77.2602V6.072H69.8362V10.328H76.7002V14.504H69.8362V23H65.0522V1.88ZM84.2352 6.072H79.1952V1.88H94.0432V6.072H89.0192V23H84.2352V6.072ZM99.7797 29.656H97.0117V9.864H99.8277V12.328C99.9237 11.9973 100.19 11.608 100.628 11.16C101.065 10.712 101.652 10.3227 102.388 9.992C103.134 9.65067 103.988 9.48 104.948 9.48C106.164 9.48 107.241 9.77333 108.18 10.36C109.129 10.936 109.87 11.7467 110.404 12.792C110.948 13.8267 111.22 15.0427 111.22 16.44C111.22 17.8373 110.942 19.0587 110.388 20.104C109.833 21.1387 109.076 21.944 108.116 22.52C107.166 23.096 106.078 23.384 104.852 23.384C103.86 23.384 102.99 23.1973 102.244 22.824C101.508 22.4507 100.926 22.0293 100.5 21.56C100.084 21.0907 99.8437 20.7173 99.7797 20.44V29.656ZM108.468 16.44C108.468 15.4907 108.27 14.6693 107.876 13.976C107.492 13.2827 106.98 12.744 106.34 12.36C105.7 11.976 105.006 11.784 104.26 11.784C103.438 11.784 102.692 11.9813 102.02 12.376C101.348 12.76 100.814 13.304 100.42 14.008C100.025 14.7013 99.8277 15.512 99.8277 16.44C99.8277 17.368 100.025 18.184 100.42 18.888C100.814 19.5813 101.348 20.12 102.02 20.504C102.692 20.888 103.438 21.08 104.26 21.08C105.006 21.08 105.7 20.8933 106.34 20.52C106.98 20.136 107.492 19.5973 107.876 18.904C108.27 18.2107 108.468 17.3893 108.468 16.44ZM117.016 23H114.216V0.983999H117.016V23ZM123.634 16.488C123.634 17.864 123.928 18.9627 124.514 19.784C125.112 20.5947 126.024 21 127.25 21C128.488 21 129.4 20.5947 129.986 19.784C130.573 18.9627 130.866 17.864 130.866 16.488V9.864H133.618V16.872C133.618 18.152 133.368 19.2827 132.866 20.264C132.376 21.2453 131.656 22.0133 130.706 22.568C129.768 23.112 128.616 23.384 127.25 23.384C125.896 23.384 124.744 23.112 123.794 22.568C122.856 22.0133 122.136 21.2453 121.634 20.264C121.144 19.2827 120.898 18.152 120.898 16.872V9.864H123.634V16.488ZM142.235 9.48C142.918 9.48 143.553 9.54933 144.139 9.688C144.737 9.82667 145.249 9.992 145.675 10.184C146.113 10.376 146.422 10.5467 146.603 10.696L145.499 12.456C145.286 12.264 144.902 12.0507 144.347 11.816C143.793 11.5707 143.174 11.448 142.491 11.448C141.745 11.448 141.11 11.5973 140.587 11.896C140.065 12.184 139.803 12.6053 139.803 13.16C139.803 13.7147 140.07 14.1573 140.603 14.488C141.147 14.808 141.873 15.0747 142.779 15.288C143.505 15.4587 144.182 15.688 144.811 15.976C145.451 16.264 145.969 16.664 146.363 17.176C146.758 17.6773 146.955 18.3493 146.955 19.192C146.955 19.96 146.795 20.616 146.475 21.16C146.155 21.6933 145.723 22.1253 145.179 22.456C144.635 22.776 144.027 23.0107 143.355 23.16C142.683 23.3093 142.001 23.384 141.307 23.384C140.497 23.384 139.766 23.2987 139.115 23.128C138.465 22.968 137.915 22.776 137.467 22.552C137.03 22.3173 136.71 22.1147 136.507 21.944L137.611 19.96C137.889 20.2267 138.342 20.5093 138.971 20.808C139.611 21.1067 140.337 21.256 141.147 21.256C142.043 21.256 142.769 21.0693 143.323 20.696C143.878 20.312 144.155 19.816 144.155 19.208C144.155 18.7493 144.022 18.3813 143.755 18.104C143.489 17.8267 143.131 17.6027 142.683 17.432C142.235 17.2613 141.745 17.112 141.211 16.984C140.699 16.8667 140.198 16.712 139.707 16.52C139.227 16.328 138.785 16.0827 138.379 15.784C137.985 15.4747 137.67 15.1013 137.435 14.664C137.201 14.216 137.083 13.6933 137.083 13.096C137.083 12.3387 137.323 11.6933 137.803 11.16C138.283 10.616 138.913 10.2 139.691 9.912C140.47 9.624 141.318 9.48 142.235 9.48Z" fill="white"/>
</svg>
